<?xml version="1.0" standalone="no"?><!DOCTYPE svg PUBLIC "-//W3C//DTD SVG 1.1//EN" "http://www.w3.org/Graphics/SVG/1.1/DTD/svg11.dtd"><svg t="1752829079313" class="icon" viewBox="0 0 1024 1024" version="1.1" xmlns="http://www.w3.org/2000/svg" p-id="9907" xmlns:xlink="http://www.w3.org/1999/xlink" width="200" height="200"><path d="M957.705625 384.093127h-57.574278a71.293815 71.293815 0 0 1-68.256406-64.161021A320.805106 320.805106 0 0 0 501.240913 0.150847H332.749977A331.316592 331.316592 0 0 0 0 330.853131v362.441513A331.316592 331.316592 0 0 0 332.749977 1023.996928h358.346128A331.316592 331.316592 0 0 0 1023.846082 693.294644v-234.460753a74.228841 74.228841 0 0 0-66.140457-74.740764zM319.951901 256.112367H511.923041a63.99038 63.99038 0 1 1 0 127.98076H319.951901A64.297534 64.297534 0 0 1 255.96152 319.932106 65.457893 65.457893 0 0 1 319.951901 256.112367z m383.94228 511.923041H319.951901A62.830021 62.830021 0 0 1 255.96152 703.874387a64.024508 64.024508 0 0 1 63.990381-63.819739h383.94228a64.024508 64.024508 0 0 1 63.99038 63.819739 62.830021 62.830021 0 0 1-63.99038 64.161021z" fill="#FF8000" p-id="9908"></path></svg>