<?xml version="1.0" standalone="no"?><!DOCTYPE svg PUBLIC "-//W3C//DTD SVG 1.1//EN" "http://www.w3.org/Graphics/SVG/1.1/DTD/svg11.dtd"><svg t="1753324711711" class="icon" viewBox="0 0 1024 1024" version="1.1" xmlns="http://www.w3.org/2000/svg" p-id="8094" xmlns:xlink="http://www.w3.org/1999/xlink" width="200" height="200"><path d="M512 85.333333c235.648 0 426.666667 191.018667 426.666667 426.666667s-191.018667 426.666667-426.666667 426.666667S85.333333 747.648 85.333333 512 276.352 85.333333 512 85.333333z m0 85.333334a341.333333 341.333333 0 1 0 0 682.666666 341.333333 341.333333 0 0 0 0-682.666666z m-42.666667 106.154666a42.666667 42.666667 0 0 1 42.368 37.674667l0.298667 4.992V512h193.28a42.666667 42.666667 0 0 1 42.368 37.674667l0.256 4.992a42.666667 42.666667 0 0 1-37.674667 42.368L705.28 597.333333H469.333333a42.666667 42.666667 0 0 1-42.368-37.674666L426.666667 554.666667V319.488a42.666667 42.666667 0 0 1 42.666666-42.666667z" fill="#000000" p-id="8095"></path></svg>